<?xml version="1.0" encoding="UTF-8"?>
<svg width="27px" height="24px" viewBox="0 0 27 24" version="1.1" xmlns="http://www.w3.org/2000/svg" xmlns:xlink="http://www.w3.org/1999/xlink">
    <!-- Generator: Sketch 51.3 (57544) - http://www.bohemiancoding.com/sketch -->
    <title>Logo-Urban-rgb</title>
    <desc>Created with Sketch.</desc>
    <defs></defs>
    <g id="Symbols" stroke="none" stroke-width="1" fill="none" fill-rule="evenodd">
        <g id="Menu" transform="translate(-235.000000, -547.000000)">
            <g id="Logo-Urban-rgb" transform="translate(235.000000, 547.000000)">
                <polyline id="Fill-1" fill="#EDA847" points="7 15.3991934 13.653513 19 17 17.2000244 13.653513 15.4000489 17 13.6000733 10.3325058 10 7 11.7997311 10.3339431 13.5997067 7 15.3991934"></polyline>
                <polyline id="Fill-2" fill="#641731" points="7 9.00009053 7 13 10 10.9988231 10 7 7 9.00009053"></polyline>
                <g id="Group-8" transform="translate(0.000000, 1.000000)">
                    <polyline id="Fill-3" fill="#E2635F" points="13.2411688 6.05901493 13.2411688 10.0160597 9.94038961 8.03834328 9.94012987 4.08049254 13.2411688 6.05901493"></polyline>
                    <polyline id="Fill-5" fill="#98224A" points="6.62818182 10.017806 6.62818182 17.929209 0 13.9747164 0 6.05968657 6.62818182 10.017806"></polyline>
                    <polyline id="Fill-6" fill="#E2635F" points="19.8767532 6.06291045 19.8753247 10.0155224 16.5672727 8.03753731 16.5672727 4.08049254 19.8767532 6.06291045"></polyline>
                    <polyline id="Fill-7" fill="#7A1A3C" points="9.94025974 0.123850746 0 6.05968657 6.62818182 10.016597 9.94038961 8.03834328 6.62818182 6.05968657 13.2411688 2.10264179 9.94025974 0.123850746"></polyline>
                </g>
                <polyline id="Fill-9" fill="#DF514D" points="10 1.99891415 12.9883895 3.99837122 10.0003527 5.99769257 12.9883895 7.99674245 15.9995885 5.99769257 18.9957379 8 22 6.00027146 12.9883895 0 10 1.99891415"></polyline>
                <polyline id="Fill-10" fill="#641731" points="7 12 7 16 10 14.0002716 9.99870664 10 7 12"></polyline>
                <polyline id="Fill-11" fill="#CD933E" points="12 20.0000453 12 24 15 22.0003621 15 18 12 20.0000453"></polyline>
                <polyline id="Fill-12" fill="#D24041" points="20.0018773 8.99814647 20 13 23 10.9926311 23 7 20.0018773 8.99814647"></polyline>
                <polyline id="Fill-13" fill="#D24041" points="12 9.00027161 12 13 15 11.0005432 15 7 12 9.00027161"></polyline>
                <polyline id="Fill-14" fill="#F4B659" points="7 16 7 19.9948455 14 24 14 19.9967445 7 16"></polyline>
                <polyline id="Fill-15" fill="#1A9E8D" points="21.0077272 10 24 12.0152081 15.0099014 18 12 16.0001358 15.0099014 14.0001358 12 11.9991853 15.0099014 10 18.0028793 12.0097766 21.0077272 10"></polyline>
                <polyline id="Fill-16" fill="#228478" points="27 13 27 16.6020562 17 22 17 18.3945167 27 13"></polyline>
            </g>
        </g>
    </g>
</svg>