<?xml version="1.0" encoding="UTF-8"?>
<svg width="21px" height="21px" viewBox="0 0 21 21" version="1.1" xmlns="http://www.w3.org/2000/svg" xmlns:xlink="http://www.w3.org/1999/xlink">
    <!-- Generator: Sketch 61 (89581) - https://sketch.com -->
    <title>iconmonstr-user-5</title>
    <desc>Created with Sketch.</desc>
    <g id="Page-1" stroke="none" stroke-width="1" fill="none" fill-rule="evenodd">
        <g id="iconmonstr-user-5" fill="#950e3e" fill-rule="nonzero">
            <path d="M16.625,6.125875 C16.625,9.50775 13.88275,12.250875 10.5,12.250875 C7.11725,12.250875 4.375,9.50775 4.375,6.125875 C4.375,2.74225 7.11725,8.8817842e-16 10.5,8.8817842e-16 C13.88275,8.8817842e-16 16.625,2.74225 16.625,6.125875 Z M15.22675,12.408375 C13.909,13.40325 12.2745,14.000875 10.5,14.000875 C8.72375,14.000875 7.088375,13.4015 5.768875,12.406625 C2.205875,13.9755 0,18.860625 0,21 L21,21 C21,18.879875 18.725,13.99475 15.22675,12.408375 L15.22675,12.408375 Z" id="Shape"></path>
        </g>
    </g>
</svg>
