<?xml version="1.0" encoding="UTF-8"?>
<svg width="29px" height="23px" viewBox="0 0 29 23" version="1.1" xmlns="http://www.w3.org/2000/svg" xmlns:xlink="http://www.w3.org/1999/xlink">
    <!-- Generator: Sketch 61 (89581) - https://sketch.com -->
    <title>comment-green</title>
    <desc>Created with Sketch.</desc>
    <g id="Page-1" stroke="none" stroke-width="1" fill="none" fill-rule="evenodd">
        <g id="comment-green" fill="#00A398" fill-rule="nonzero">
            <path d="M0.0151831,8.93557336 C0.0151831,7.35419297 0.5160658,5.89268769 1.5178466,4.5510163 C2.5196274,3.20934492 3.8791667,2.14854898 5.5965046,1.36859004 C7.3138426,0.588631096 9.1849983,0.198659867 11.2100268,0.198659867 C12.7341638,0.198659867 14.1867252,0.429422267 15.5677495,0.89095806 C16.9487766,1.3524911 18.1365835,1.97323023 19.1312087,2.75318643 C20.1258338,3.53314537 20.9183032,4.46156678 21.5086387,5.53848088 C22.0989715,6.61539498 22.3941351,7.74774724 22.3941351,8.93557336 C22.3941351,9.88726527 22.2063059,10.8067428 21.8306366,11.6940335 C21.4549701,12.5813269 20.923675,13.3845289 20.2367403,14.1036642 C19.5498057,14.8227994 18.7483925,15.4524796 17.8324788,15.9927268 C16.916565,16.5329713 15.8879669,16.9497768 14.7466516,17.2431572 C13.6053363,17.5365348 12.4264732,17.6832222 11.2100268,17.6832222 C9.6930449,17.6832222 8.2726841,17.4649812 6.9489031,17.028491 L4.3943738,18.8102192 C3.4426819,19.4184451 2.7718572,19.5955417 2.381878,19.3415197 C1.9918991,19.0874951 1.9114003,18.3773147 2.1403786,17.2109566 L2.6555775,14.5490955 C1.8183751,13.7762944 1.1690162,12.9086939 0.7074815,11.9462667 C0.245947,10.9838421 0.0151831,9.98028684 0.0151831,8.93557336 Z M14.3012202,19.228819 C16.0328683,18.8853503 17.6106492,18.2807128 19.0346095,17.4148901 C20.4585699,16.5490647 21.6195452,15.4846885 22.5175685,14.2217285 C23.4155946,12.9587713 23.9647746,11.5938651 24.1651307,10.1269715 C25.4674463,10.6493283 26.5103573,11.4006531 27.2938911,12.3809654 C28.077422,13.3612804 28.469193,14.438178 28.469193,15.611694 C28.469193,16.3344067 28.3082037,17.0356433 27.9861975,17.7154228 C27.6641913,18.3952024 27.2133964,19.0069949 26.6337935,19.5508196 L27.00946,21.4291475 C27.1525699,22.2448832 27.0899602,22.7421884 26.8216254,22.9210778 C26.5532933,23.0999672 26.0828192,22.9747465 25.4101974,22.5454118 L23.6177339,21.2788814 C22.6875072,21.5937268 21.689321,21.7511471 20.6231395,21.7511471 C19.3422918,21.7511471 18.1473271,21.5257496 17.0382124,21.0749484 C15.9291004,20.6241471 15.0167779,20.0087779 14.3012202,19.228819 Z" id="Page-1"></path>
        </g>
    </g>
</svg>