<?xml version="1.0" encoding="UTF-8"?>
<svg width="29px" height="23px" viewBox="0 0 29 23" version="1.1" xmlns="http://www.w3.org/2000/svg" xmlns:xlink="http://www.w3.org/1999/xlink">
    <!-- Generator: Sketch 51.3 (57544) - http://www.bohemiancoding.com/sketch -->
    <title>Page 1</title>
    <desc>Created with Sketch.</desc>
    <defs></defs>
    <g id="Symbols" stroke="none" stroke-width="1" fill="none" fill-rule="evenodd">
        <g id="icones" transform="translate(-51.000000, 0.000000)" fill="#4A4A4A">
            <path d="M51.0151831,8.93557336 C51.0151831,7.35419297 51.5160658,5.89268769 52.5178466,4.5510163 C53.5196274,3.20934492 54.8791667,2.14854898 56.5965046,1.36859004 C58.3138426,0.588631096 60.1849983,0.198659867 62.2100268,0.198659867 C63.7341638,0.198659867 65.1867252,0.429422267 66.5677495,0.89095806 C67.9487766,1.3524911 69.1365835,1.97323023 70.1312087,2.75318643 C71.1258338,3.53314537 71.9183032,4.46156678 72.5086387,5.53848088 C73.0989715,6.61539498 73.3941351,7.74774724 73.3941351,8.93557336 C73.3941351,9.88726527 73.2063059,10.8067428 72.8306366,11.6940335 C72.4549701,12.5813269 71.923675,13.3845289 71.2367403,14.1036642 C70.5498057,14.8227994 69.7483925,15.4524796 68.8324788,15.9927268 C67.916565,16.5329713 66.8879669,16.9497768 65.7466516,17.2431572 C64.6053363,17.5365348 63.4264732,17.6832222 62.2100268,17.6832222 C60.6930449,17.6832222 59.2726841,17.4649812 57.9489031,17.028491 L55.3943738,18.8102192 C54.4426819,19.4184451 53.7718572,19.5955417 53.381878,19.3415197 C52.9918991,19.0874951 52.9114003,18.3773147 53.1403786,17.2109566 L53.6555775,14.5490955 C52.8183751,13.7762944 52.1690162,12.9086939 51.7074815,11.9462667 C51.245947,10.9838421 51.0151831,9.98028684 51.0151831,8.93557336 Z M65.3012202,19.228819 C67.0328683,18.8853503 68.6106492,18.2807128 70.0346095,17.4148901 C71.4585699,16.5490647 72.6195452,15.4846885 73.5175685,14.2217285 C74.4155946,12.9587713 74.9647746,11.5938651 75.1651307,10.1269715 C76.4674463,10.6493283 77.5103573,11.4006531 78.2938911,12.3809654 C79.077422,13.3612804 79.469193,14.438178 79.469193,15.611694 C79.469193,16.3344067 79.3082037,17.0356433 78.9861975,17.7154228 C78.6641913,18.3952024 78.2133964,19.0069949 77.6337935,19.5508196 L78.00946,21.4291475 C78.1525699,22.2448832 78.0899602,22.7421884 77.8216254,22.9210778 C77.5532933,23.0999672 77.0828192,22.9747465 76.4101974,22.5454118 L74.6177339,21.2788814 C73.6875072,21.5937268 72.689321,21.7511471 71.6231395,21.7511471 C70.3422918,21.7511471 69.1473271,21.5257496 68.0382124,21.0749484 C66.9291004,20.6241471 66.0167779,20.0087779 65.3012202,19.228819 Z" id="Page-1"></path>
        </g>
    </g>
</svg>