<?xml version="1.0" encoding="UTF-8"?>
<svg width="9px" height="9px" viewBox="0 0 9 9" version="1.1" xmlns="http://www.w3.org/2000/svg" xmlns:xlink="http://www.w3.org/1999/xlink">
    <!-- Generator: Sketch 51.3 (57544) - http://www.bohemiancoding.com/sketch -->
    <title>Close</title>
    <desc>Created with Sketch.</desc>
    <defs></defs>
    <g id="Page--Objet" stroke="none" stroke-width="1" fill="none" fill-rule="evenodd">
        <g id="Page-Objet-Fermé-Copy-6" transform="translate(-1168.000000, -553.000000)" fill="#FFFFFF" fill-rule="nonzero">
            <g id="Group-7" transform="translate(1160.000000, 544.000000)">
                <g id="Close" transform="translate(8.000000, 9.000000)">
                    <g id="Layer_1">
                        <path d="M8.89714286,7.55298701 L5.83012987,4.47428571 L8.90415584,1.43532468 C9.03038961,1.30909091 9.03038961,1.10337662 8.90415584,0.977142857 L8.02987013,0.0981818182 C7.96909091,0.0374025974 7.88727273,0.00467532468 7.80077922,0.00467532468 C7.71428571,0.00467532468 7.63246753,0.0397402597 7.57168831,0.0981818182 L4.51168831,3.12779221 L1.44701299,0.100519481 C1.38623377,0.0397402597 1.30441558,0.00701298701 1.21792208,0.00701298701 C1.13142857,0.00701298701 1.04961039,0.0420779221 0.988831169,0.100519481 L0.116883117,0.979480519 C-0.00935064935,1.10571429 -0.00935064935,1.31142857 0.116883117,1.43766234 L3.19090909,4.47662338 L0.126233766,7.55298701 C0.0654545455,7.61376623 0.0303896104,7.69558442 0.0303896104,7.78207792 C0.0303896104,7.86857143 0.0631168831,7.95038961 0.126233766,8.01116883 L1.00051948,8.89012987 C1.06363636,8.95324675 1.14545455,8.98597403 1.22961039,8.98597403 C1.31142857,8.98597403 1.39558442,8.95558442 1.4587013,8.89012987 L4.51168831,5.82311688 L7.56701299,8.88779221 C7.63012987,8.95090909 7.71194805,8.98363636 7.7961039,8.98363636 C7.87792208,8.98363636 7.96207792,8.95324675 8.02519481,8.88779221 L8.89948052,8.00883117 C8.96025974,7.94805195 8.99532468,7.86623377 8.99532468,7.77974026 C8.99298701,7.69558442 8.95792208,7.61376623 8.89714286,7.55298701 Z" id="Shape"></path>
                    </g>
                </g>
            </g>
        </g>
    </g>
</svg>