<?xml version="1.0" encoding="UTF-8"?>
<svg width="23px" height="23px" viewBox="0 0 23 23" version="1.1" xmlns="http://www.w3.org/2000/svg" xmlns:xlink="http://www.w3.org/1999/xlink">
    <!-- Generator: Sketch 51.3 (57544) - http://www.bohemiancoding.com/sketch -->
    <title>Page 1</title>
    <desc>Created with Sketch.</desc>
    <defs></defs>
    <g id="Symbols" stroke="none" stroke-width="1" fill="none" fill-rule="evenodd">
        <g id="icones" fill="#4A4A4A">
            <g id="Group-3">
                <g id="Group-12">
                    <g id="Group-11">
                        <path d="M20.125,0 L2.875,0 C2.08137638,0 1.40381132,0.280758125 0.8422853,0.842285875 C0.280758901,1.40381075 0,2.08137638 0,2.875 L0,20.125 C0,20.9186236 0.280758901,21.5961887 0.8422853,22.1577147 C1.40381132,22.7192411 2.08137638,23 2.875,23 L20.125,23 C20.9186236,23 21.5961893,22.7192411 22.1577141,22.1577147 C22.7192419,21.5961887 23,20.9186236 23,20.125 L23,2.875 C23,2.08137638 22.7192419,1.40381075 22.1577141,0.842285875 C21.5961893,0.280758125 20.9186236,0 20.125,0 Z M7.57618642,11.2473217 C7.72031479,11.1177443 7.90046911,11.0529569 8.11665861,11.0529569 C8.3328481,11.0529569 8.51300242,11.1177443 8.65712772,11.2473217 L11.2033414,14.0116407 L11.2033414,3.45107974 C11.2033414,3.26391047 11.2794057,3.10194073 11.4315406,2.96516499 C11.5836723,2.82838649 11.7638266,2.76 11.9720097,2.76 C12.1801927,2.76 12.360347,2.82838649 12.5124788,2.96516499 C12.6646136,3.10194073 12.740678,3.26391047 12.740678,3.45107974 L12.740678,13.9900458 L15.2628692,11.2473217 C15.4069976,11.1177443 15.5871519,11.0529569 15.8033414,11.0529569 C16.0195309,11.0529569 16.1996852,11.1177443 16.3438105,11.2473217 C16.4879358,11.3769019 16.56,11.5388717 16.56,11.7332392 C16.56,11.9276068 16.4879358,12.0967748 16.3438105,12.2407516 L12.5485109,16.3656324 C12.4684402,16.4376208 12.376363,16.4880116 12.27227,16.5168048 C12.16818,16.5456007 12.0680932,16.56 11.9720097,16.56 C11.8599102,16.56 11.75182,16.5456007 11.647727,16.5168048 C11.543637,16.4880116 11.4515567,16.4376208 11.3714891,16.3656324 L7.57618642,12.2407516 C7.43206111,12.0967748 7.36,11.9276068 7.36,11.7332392 C7.36,11.5388717 7.43206111,11.3769019 7.57618642,11.2473217 Z M17.71,20.24 L5.29,20.24 C5.10312316,20.24 4.94140648,20.1489605 4.80484444,19.9668741 C4.66827964,19.7847914 4.6,19.5691691 4.6,19.32 C4.6,19.0708309 4.66827964,18.8552086 4.80484444,18.6731259 C4.94140648,18.4910395 5.10312316,18.4 5.29,18.4 L17.71,18.4 C17.8968768,18.4 18.0585935,18.4910395 18.1951556,18.6731259 C18.3317204,18.8552086 18.4,19.0708309 18.4,19.32 C18.4,19.5691691 18.3317204,19.7847914 18.1951556,19.9668741 C18.0585935,20.1489605 17.8968768,20.24 17.71,20.24 Z" id="Page-1"></path>
                    </g>
                </g>
            </g>
        </g>
    </g>
</svg>