<?xml version="1.0" encoding="UTF-8"?>
<svg width="9px" height="18px" viewBox="0 0 9 18" version="1.1" xmlns="http://www.w3.org/2000/svg" xmlns:xlink="http://www.w3.org/1999/xlink">
    <!-- Generator: Sketch 50.2 (55047) - http://www.bohemiancoding.com/sketch -->
    <title>FACEBOOK_SYMBOL</title>
    <desc>Created with Sketch.</desc>
    <defs></defs>
    <g id="Dev" stroke="none" stroke-width="1" fill="none" fill-rule="evenodd">
        <g id="VDF_Menu_1440Px" transform="translate(-984.000000, -55.000000)" fill="#000000">
            <g id="SOCIAL" transform="translate(938.000000, 0.000000)">
                <g id="Facebook" transform="translate(46.000000, 55.000000)">
                    <path d="M2.29743773,18 L2.29743773,9.55376663 L0,9.55376663 L0,6.51276815 L2.29743773,6.51276815 C2.29743773,6.51276815 2.29743773,5.2665676 2.29743773,3.91534092 C2.29743773,1.87422393 3.65456182,0 6.7817377,0 C8.04786915,0 8.98413115,0.117826178 8.98413115,0.117826178 L8.91035789,2.95763399 C8.91035789,2.95763399 7.95552596,2.94860831 6.91358418,2.94860831 C5.7858831,2.94860831 5.60524835,3.45371831 5.60524835,4.29228623 C5.60524835,4.95509951 5.60524835,2.87935672 5.60524835,6.51276815 L9,6.51276815 L8.85228466,9.55376663 L5.60524835,9.55376663 L5.60524835,18 L2.29743773,18" id="Fill-5"></path>
                </g>
            </g>
        </g>
    </g>
</svg>