<?xml version="1.0" encoding="UTF-8"?>
<svg width="21px" height="21px" viewBox="0 0 21 21" version="1.1" xmlns="http://www.w3.org/2000/svg" xmlns:xlink="http://www.w3.org/1999/xlink">
    <!-- Generator: Sketch 51.3 (57544) - http://www.bohemiancoding.com/sketch -->
    <title>Page 1</title>
    <desc>Created with Sketch.</desc>
    <defs></defs>
    <g id="Page-Recherche" stroke="none" stroke-width="1" fill="none" fill-rule="evenodd">
        <g id="-Page-Recherche" transform="translate(-1167.000000, -310.000000)" fill="#4A4A4A">
            <path d="M1168.59783,316.391304 L1171.79348,316.391304 C1172.22622,316.391304 1172.60071,316.233187 1172.91695,315.916948 C1173.23319,315.600713 1173.3913,315.226224 1173.3913,314.793478 L1173.3913,311.597826 C1173.3913,311.16508 1173.23319,310.790592 1172.91695,310.474356 C1172.60071,310.158118 1172.22622,310 1171.79348,310 L1168.59783,310 C1168.16508,310 1167.79059,310.158118 1167.47435,310.474356 C1167.15812,310.790592 1167,311.16508 1167,311.597826 L1167,314.793478 C1167,315.226224 1167.15812,315.600713 1167.47435,315.916948 C1167.79059,316.233187 1168.16508,316.391304 1168.59783,316.391304 Z M1175.90217,316.391304 L1179.09783,316.391304 C1179.53057,316.391304 1179.90506,316.233187 1180.2213,315.916948 C1180.53753,315.600713 1180.69565,315.226224 1180.69565,314.793478 L1180.69565,311.597826 C1180.69565,311.16508 1180.53753,310.790592 1180.2213,310.474356 C1179.90506,310.158118 1179.53057,310 1179.09783,310 L1175.90217,310 C1175.46943,310 1175.09494,310.158118 1174.7787,310.474356 C1174.46247,310.790592 1174.30435,311.16508 1174.30435,311.597826 L1174.30435,314.793478 C1174.30435,315.226224 1174.46247,315.600713 1174.7787,315.916948 C1175.09494,316.233187 1175.46943,316.391304 1175.90217,316.391304 Z M1183.20652,316.391304 L1186.40217,316.391304 C1186.83492,316.391304 1187.20941,316.233187 1187.52564,315.916948 C1187.84188,315.600713 1188,315.226224 1188,314.793478 L1188,311.597826 C1188,311.16508 1187.84188,310.790592 1187.52564,310.474356 C1187.20941,310.158118 1186.83492,310 1186.40217,310 L1183.20652,310 C1182.77378,310 1182.39929,310.158118 1182.08305,310.474356 C1181.76681,310.790592 1181.6087,311.16508 1181.6087,311.597826 L1181.6087,314.793478 C1181.6087,315.226224 1181.76681,315.600713 1182.08305,315.916948 C1182.39929,316.233187 1182.77378,316.391304 1183.20652,316.391304 Z M1167,322.097826 C1167,322.530572 1167.15812,322.905061 1167.47435,323.221296 C1167.79059,323.537534 1168.16508,323.695652 1168.59783,323.695652 L1171.79348,323.695652 C1172.22622,323.695652 1172.60071,323.537534 1172.91695,323.221296 C1173.23319,322.905061 1173.3913,322.530572 1173.3913,322.097826 L1173.3913,318.902174 C1173.3913,318.469428 1173.23319,318.094939 1172.91695,317.778704 C1172.60071,317.462466 1172.22622,317.304348 1171.79348,317.304348 L1168.59783,317.304348 C1168.16508,317.304348 1167.79059,317.462466 1167.47435,317.778704 C1167.15812,318.094939 1167,318.469428 1167,318.902174 L1167,322.097826 Z M1174.30435,322.097826 C1174.30435,322.530572 1174.46247,322.905061 1174.7787,323.221296 C1175.09494,323.537534 1175.46943,323.695652 1175.90217,323.695652 L1179.09783,323.695652 C1179.53057,323.695652 1179.90506,323.537534 1180.2213,323.221296 C1180.53753,322.905061 1180.69565,322.530572 1180.69565,322.097826 L1180.69565,318.902174 C1180.69565,318.469428 1180.53753,318.094939 1180.2213,317.778704 C1179.90506,317.462466 1179.53057,317.304348 1179.09783,317.304348 L1175.90217,317.304348 C1175.46943,317.304348 1175.09494,317.462466 1174.7787,317.778704 C1174.46247,318.094939 1174.30435,318.469428 1174.30435,318.902174 L1174.30435,322.097826 Z M1181.6087,322.097826 C1181.6087,322.530572 1181.76681,322.905061 1182.08305,323.221296 C1182.39929,323.537534 1182.77378,323.695652 1183.20652,323.695652 L1186.40217,323.695652 C1186.83492,323.695652 1187.20941,323.537534 1187.52564,323.221296 C1187.84188,322.905061 1188,322.530572 1188,322.097826 L1188,318.902174 C1188,318.469428 1187.84188,318.094939 1187.52564,317.778704 C1187.20941,317.462466 1186.83492,317.304348 1186.40217,317.304348 L1183.20652,317.304348 C1182.77378,317.304348 1182.39929,317.462466 1182.08305,317.778704 C1181.76681,318.094939 1181.6087,318.469428 1181.6087,318.902174 L1181.6087,322.097826 Z M1167,329.402174 C1167,329.834921 1167.15812,330.209407 1167.47435,330.525645 C1167.79059,330.841883 1168.16508,331 1168.59783,331 L1171.79348,331 C1172.22622,331 1172.60071,330.841883 1172.91695,330.525645 C1173.23319,330.209407 1173.3913,329.834921 1173.3913,329.402174 L1173.3913,326.206522 C1173.3913,325.773776 1173.23319,325.399287 1172.91695,325.083052 C1172.60071,324.766813 1172.22622,324.608696 1171.79348,324.608696 L1168.59783,324.608696 C1168.16508,324.608696 1167.79059,324.766813 1167.47435,325.083052 C1167.15812,325.399287 1167,325.773776 1167,326.206522 L1167,329.402174 Z M1174.30435,329.402174 C1174.30435,329.834921 1174.46247,330.209407 1174.7787,330.525645 C1175.09494,330.841883 1175.46943,331 1175.90217,331 L1179.09783,331 C1179.53057,331 1179.90506,330.841883 1180.2213,330.525645 C1180.53753,330.209407 1180.69565,329.834921 1180.69565,329.402174 L1180.69565,326.206522 C1180.69565,325.773776 1180.53753,325.399287 1180.2213,325.083052 C1179.90506,324.766813 1179.53057,324.608696 1179.09783,324.608696 L1175.90217,324.608696 C1175.46943,324.608696 1175.09494,324.766813 1174.7787,325.083052 C1174.46247,325.399287 1174.30435,325.773776 1174.30435,326.206522 L1174.30435,329.402174 Z M1181.6087,329.402174 C1181.6087,329.834921 1181.76681,330.209407 1182.08305,330.525645 C1182.39929,330.841883 1182.77378,331 1183.20652,331 L1186.40217,331 C1186.83492,331 1187.20941,330.841883 1187.52564,330.525645 C1187.84188,330.209407 1188,329.834921 1188,329.402174 L1188,326.206522 C1188,325.773776 1187.84188,325.399287 1187.52564,325.083052 C1187.20941,324.766813 1186.83492,324.608696 1186.40217,324.608696 L1183.20652,324.608696 C1182.77378,324.608696 1182.39929,324.766813 1182.08305,325.083052 C1181.76681,325.399287 1181.6087,325.773776 1181.6087,326.206522 L1181.6087,329.402174 Z" id="Page-1"></path>
        </g>
    </g>
</svg>