<?xml version="1.0" encoding="UTF-8"?>
<svg width="18px" height="18px" viewBox="0 0 18 18" version="1.1" xmlns="http://www.w3.org/2000/svg" xmlns:xlink="http://www.w3.org/1999/xlink">
    <!-- Generator: Sketch 50.2 (55047) - http://www.bohemiancoding.com/sketch -->
    <title>INSTAGRAM_SYMBOL</title>
    <desc>Created with Sketch.</desc>
    <defs></defs>
    <g id="Dev" stroke="none" stroke-width="1" fill="none" fill-rule="evenodd">
        <g id="VDF_Menu_1440Px" transform="translate(-980.000000, -16.000000)" fill="#000000">
            <g id="SOCIAL" transform="translate(938.000000, 0.000000)">
                <g id="Instagram" transform="translate(42.000000, 16.000000)">
                    <path d="M16.19775,0 L1.80225,0 C0.808875,0 0,0.808875 0,1.80225 L0,16.19775 C0,17.191125 0.808875,18 1.80225,18 L16.19775,18 C17.191125,18 18,17.191125 18,16.19775 L18,1.80225 C18,0.808875 17.191125,0 16.19775,0 Z M9,5.401125 C10.98225,5.401125 12.598875,7.01775 12.598875,9 C12.598875,10.98225 10.98225,12.598875 9,12.598875 C7.01775,12.598875 5.401125,10.98225 5.401125,9 C5.401125,7.01775 7.01775,5.401125 9,5.401125 Z M2.25,16.19775 C1.98225,16.19775 1.80225,16.01775 1.80225,15.75 L1.80225,8.098875 L3.691125,8.098875 C3.598875,8.371125 3.598875,8.73225 3.598875,9 C3.598875,11.971125 6.028875,14.401125 9,14.401125 C11.971125,14.401125 14.401125,11.971125 14.401125,9 C14.401125,8.73225 14.401125,8.371125 14.308875,8.098875 L16.19775,8.098875 L16.19775,15.75 C16.19775,16.01775 16.01775,16.19775 15.75,16.19775 L2.25,16.19775 Z M16.19775,4.05225 C16.19775,4.32 16.01775,4.5 15.75,4.5 L13.94775,4.5 C13.68,4.5 13.5,4.32 13.5,4.05225 L13.5,2.25 C13.5,1.98225 13.68,1.80225 13.94775,1.80225 L15.75,1.80225 C16.01775,1.80225 16.19775,1.98225 16.19775,2.25 L16.19775,4.05225 Z" id="Fill-1"></path>
                </g>
            </g>
        </g>
    </g>
</svg>