<?xml version="1.0" encoding="UTF-8"?>
<svg width="27px" height="21px" viewBox="0 0 27 21" version="1.1" xmlns="http://www.w3.org/2000/svg" xmlns:xlink="http://www.w3.org/1999/xlink">
    <!-- Generator: Sketch 51.3 (57544) - http://www.bohemiancoding.com/sketch -->
    <title>Page 1</title>
    <desc>Created with Sketch.</desc>
    <defs></defs>
    <g id="Symbols" stroke="none" stroke-width="1" fill="none" fill-rule="evenodd">
        <g id="icones" transform="translate(-85.000000, -1.000000)" fill="#e94946">
            <g id="Group-3">
                <g id="Group-12">
                    <g id="Group-11">
                        <path d="M98.8392001,4.83841332 C98.8392001,4.83841332 98.722869,4.65148409 98.4902068,4.27761894 C98.2575446,3.90375713 97.8940109,3.49511965 97.3996019,3.05169983 C96.9051929,2.60828 96.2750729,2.20398949 95.5092234,1.83882159 C94.7433739,1.47365036 93.8369667,1.29106809 92.7899831,1.29106809 C91.6460557,1.29106809 90.6427084,1.48669124 89.7799151,1.87794422 C88.9171229,2.2691972 88.1900606,2.79086228 87.5987081,3.44294947 C87.0073553,4.09504 86.5614238,4.83840998 86.2609005,5.67308279 C85.9603769,6.50775559 85.8101174,7.35980622 85.8101174,8.22925803 C85.8101174,9.67254844 86.4887085,11.1592884 87.8459115,12.6895247 C89.2031146,14.2197576 90.6960159,15.6152081 92.3246587,16.8759129 C93.9533015,18.136617 95.4462036,19.1669019 96.8034059,19.9667974 C98.1606083,20.7666929 98.8392001,21.1666348 98.8392001,21.1666348 C98.8392001,21.1666348 99.517792,20.7666929 100.874994,19.9667974 C102.232197,19.1669019 103.715405,18.1409643 105.324661,16.8889537 C106.933912,15.6369429 108.417121,14.2458427 109.774323,12.7156064 C111.131525,11.1853702 111.810117,9.68993627 111.810117,8.22925803 C111.810117,7.34241838 111.655012,6.48167384 111.344793,5.6469977 C111.034574,4.81232489 110.588645,4.07330187 110.006985,3.4299086 C109.425326,2.78651532 108.703113,2.2691972 107.84032,1.87794422 C106.977526,1.48669124 105.993566,1.29106809 104.888417,1.29106809 C103.783268,1.29106809 102.84778,1.47365036 102.08193,1.83882159 C101.316081,2.20398949 100.695655,2.60828 100.220633,3.05169983 C99.7456111,3.49511965 99.3966215,3.90375713 99.173653,4.27761894 C98.9506844,4.65148409 98.8392001,4.83841332 98.8392001,4.83841332 Z" id="Page-1"></path>
                    </g>
                </g>
            </g>
        </g>
    </g>
</svg>
