<?xml version="1.0" encoding="UTF-8"?>
<svg width="16px" height="23px" viewBox="0 0 16 23" version="1.1" xmlns="http://www.w3.org/2000/svg" xmlns:xlink="http://www.w3.org/1999/xlink">
    <!-- Generator: Sketch 51.3 (57544) - http://www.bohemiancoding.com/sketch -->
    <title>Page 1</title>
    <desc>Created with Sketch.</desc>
    <defs></defs>
    <g id="Symbols" stroke="none" stroke-width="1" fill="none" fill-rule="evenodd">
        <g id="icones" transform="translate(-29.000000, 0.000000)" fill="#4A4A4A">
            <g id="Group-3">
                <g id="Group-12">
                    <g id="Group-11">
                        <path d="M40.8409226,7.66666555 C40.8409226,6.60850313 40.4665775,5.70508184 39.7178772,4.95638154 C38.9691769,4.20767789 38.0657556,3.83333277 37.0075899,3.83333277 C35.9494274,3.83333277 35.0460062,4.20767789 34.2973059,4.95638154 C33.5486022,5.70508184 33.1742571,6.60850313 33.1742571,7.66666555 C33.1742571,8.72483132 33.5486022,9.62825261 34.2973059,10.3769529 C35.0460062,11.1256566 35.9494274,11.5000017 37.0075899,11.5000017 C38.0657556,11.5000017 38.9691769,11.1256566 39.7178772,10.3769529 C40.4665775,9.62825261 40.8409226,8.72483132 40.8409226,7.66666555 Z M44.6742588,7.66666555 C44.6742588,8.75478067 44.5095457,9.64821661 44.1801162,10.3470069 L38.7295955,21.9368489 C38.5698735,22.2662777 38.3327875,22.5258238 38.0183344,22.7154948 C37.703878,22.9051659 37.3669687,23 37.0075899,23 C36.6482144,23 36.3113018,22.9051659 35.9968487,22.7154948 C35.6823955,22.5258238 35.4503006,22.2662777 35.3005606,21.9368489 L29.8350648,10.3470069 C29.5056362,9.64821661 29.3409243,8.75478067 29.3409243,7.66666555 C29.3409243,5.55033736 30.0896149,3.74349813 31.5870182,2.24609418 C33.0844224,0.748690234 34.8912617,0 37.0075899,0 C39.1239214,0 40.9307606,0.748690234 42.4281646,2.24609418 C43.9255685,3.74349813 44.6742588,5.55033736 44.6742588,7.66666555 Z" id="Page-1"></path>
                    </g>
                </g>
            </g>
        </g>
    </g>
</svg>