<?xml version="1.0" encoding="UTF-8"?>
<svg width="14px" height="10px" viewBox="0 0 14 10" version="1.1" xmlns="http://www.w3.org/2000/svg" xmlns:xlink="http://www.w3.org/1999/xlink">
    <!-- Generator: Sketch 51.3 (57544) - http://www.bohemiancoding.com/sketch -->
    <title>Mail</title>
    <desc>Created with Sketch.</desc>
    <defs></defs>
    <g id="Page--Objet" stroke="none" stroke-width="1" fill="none" fill-rule="evenodd">
        <g id="Page-Objet-Fermé-Copy-6" transform="translate(-1166.000000, -573.000000)" fill="#FFFFFF" fill-rule="nonzero">
            <g id="Group-7" transform="translate(1160.000000, 544.000000)">
                <g id="Mail" transform="translate(6.000000, 29.333333)">
                    <g id="Group">
                        <path d="M12.7749989,9.41538462 L0.555434736,9.41538462 C0.222173895,9.41538462 0,9.19384615 0,8.86153846 L0,1.10769231 C0,0.775384615 0.222173895,0.553846154 0.555434736,0.553846154 L12.7749989,0.553846154 C13.1082598,0.553846154 13.3304337,0.775384615 13.3304337,1.10769231 L13.3304337,8.86153846 C13.3304337,9.19384615 13.1082598,9.41538462 12.7749989,9.41538462 Z M1.11086947,8.30769231 L12.2195642,8.30769231 L12.2195642,1.66153846 L1.11086947,1.66153846 L1.11086947,8.30769231 Z" id="Shape"></path>
                        <path d="M6.66521684,5.53846154 C6.49858641,5.53846154 6.27641252,5.42769231 6.22086905,5.26153846 C6.05423863,4.98461538 6.1097821,4.65230769 6.38749947,4.48615385 L12.4972816,0.609230769 C12.7749989,0.443076923 13.1082598,0.498461538 13.2748902,0.775384615 C13.4415206,1.05230769 13.3859771,1.38461538 13.1082598,1.55076923 L6.99847768,5.42769231 C6.88739073,5.48307692 6.77630378,5.53846154 6.66521684,5.53846154 Z" id="Shape"></path>
                        <path d="M6.66521684,5.53846154 C6.55412989,5.53846154 6.44304294,5.48307692 6.38749947,5.42769231 L0.277717368,1.55076923 C1.38777878e-17,1.38461538 -0.0555434736,1.05230769 0.111086947,0.830769231 C0.277717368,0.553846154 0.61097821,0.498461538 0.833152104,0.664615385 L6.9429342,4.54153846 C7.22065157,4.70769231 7.27619505,5.04 7.10956462,5.31692308 C7.05402115,5.42769231 6.83184726,5.53846154 6.66521684,5.53846154 Z" id="Shape"></path>
                    </g>
                </g>
            </g>
        </g>
    </g>
</svg>