<?xml version="1.0" encoding="utf-8"?>
<!-- Generator: Adobe Illustrator 19.1.0, SVG Export Plug-In . SVG Version: 6.00 Build 0)  -->
<svg version="1.1" id="Calque_1" xmlns="http://www.w3.org/2000/svg" xmlns:xlink="http://www.w3.org/1999/xlink" x="0px" y="0px"
	 viewBox="-347 231.1 24 31.9" style="enable-background:new -347 231.1 24 31.9;" xml:space="preserve">
<style type="text/css">
	.st0{fill:#4A4A4A;}
</style>
<path class="st0" d="M-332,251c0,1.7-1.3,3-3,3s-3-1.3-3-3c0-0.2,0-0.4,0.1-0.6c1.5,0.5,2.9-0.9,2.4-2.4c0.2,0,0.4,0,0.5,0
	C-333.3,248-332,249.3-332,251z M-335,244c-7.6,0-12,6.6-12,6.6s4.8,7.4,12,7.4c7.7,0,12-7.4,12-7.4S-327.3,244-335,244z M-335,256
	c-2.8,0-5-2.2-5-5c0-2.8,2.2-5,5-5c2.8,0,5,2.2,5,5C-330,253.8-332.2,256-335,256z"/>
<rect x="-329.5" y="239.3" class="st0" width="6.3" height="1.5"/>
<rect x="-327.1" y="236.9" class="st0" width="1.5" height="6.3"/>
<rect x="-64.5" y="404.3" class="st0" width="6.3" height="1.5"/>
<rect x="-64.5" y="404.3" class="st0" width="6.3" height="1.5"/>
<rect x="-64.5" y="404.3" class="st0" width="6.3" height="1.5"/>
<rect x="-64.5" y="404.3" class="st0" width="6.3" height="1.5"/>
</svg>
