<?xml version="1.0" encoding="UTF-8"?>
<svg width="14px" height="13px" viewBox="0 0 14 13" version="1.1" xmlns="http://www.w3.org/2000/svg" xmlns:xlink="http://www.w3.org/1999/xlink">
    <!-- Generator: Sketch 51.3 (57544) - http://www.bohemiancoding.com/sketch -->
    <title>Twitter</title>
    <desc>Created with Sketch.</desc>
    <defs></defs>
    <g id="Page--Objet" stroke="none" stroke-width="1" fill="none" fill-rule="evenodd">
        <g id="Page-Objet-Fermé-Copy-6" transform="translate(-1166.000000, -594.000000)" fill="#FFFFFF" fill-rule="nonzero">
            <g id="Group-7" transform="translate(1160.000000, 544.000000)">
                <g id="Twitter" transform="translate(6.000000, 50.666667)">
                    <g id="Twitter-black">
                        <g id="Icons">
                            <g id="Black">
                                <path d="M13.8858684,1.38104167 C13.3673252,1.61916027 12.815583,1.7755671 12.2499395,1.84479167 C12.8488428,1.47207977 13.2937684,0.893480723 13.5025606,0.215833333 C12.9449748,0.558088511 12.3324262,0.799614216 11.6924798,0.929541667 C11.1743633,0.357291667 10.4334944,-5.68434189e-14 9.61336027,-5.68434189e-14 C8.04107496,-5.68434189e-14 6.76560009,1.318625 6.76560009,2.94525 C6.76560009,3.17595833 6.79018965,3.40025 6.83907948,3.61608333 C4.47124963,3.49270833 2.37245848,2.32166667 0.966514299,0.537541667 C0.712913764,0.989640779 0.580134233,1.5004004 0.581181451,2.01979167 C0.581181451,3.04120833 1.0839656,3.94275 1.84826694,4.47125 C1.39480162,4.45612341 0.951794036,4.32999668 0.557459759,4.10375 L0.557459759,4.13991667 C0.557459759,5.56733333 1.53959566,6.75820833 2.84371013,7.02770833 C2.59951562,7.09751019 2.34682285,7.13246125 2.09300537,7.13154167 C1.90959619,7.13154167 1.73023706,7.11375 1.55666371,7.07904167 C1.91943202,8.248625 2.97070797,9.100875 4.21783253,9.123625 C3.24292885,9.91404167 2.0140295,10.3850833 0.679828974,10.3850833 C0.449844279,10.3850833 0.222752472,10.371375 0,10.3445417 C1.26101042,11.1787083 2.75894848,11.6666667 4.36710561,11.6666667 C9.60757449,11.6666667 12.472692,7.179375 12.472692,3.28708333 C12.472692,3.15904167 12.4700884,3.031 12.4651705,2.90558333 C13.0250967,2.48686016 13.5062367,1.97055192 13.8858684,1.38104167" id="Twitter"></path>
                            </g>
                        </g>
                    </g>
                </g>
            </g>
        </g>
    </g>
</svg>