<?xml version="1.0" encoding="UTF-8"?>
<svg width="22px" height="18px" viewBox="0 0 22 18" version="1.1" xmlns="http://www.w3.org/2000/svg" xmlns:xlink="http://www.w3.org/1999/xlink">
    <!-- Generator: Sketch 50.2 (55047) - http://www.bohemiancoding.com/sketch -->
    <title>TWITTER_SYMBOL</title>
    <desc>Created with Sketch.</desc>
    <defs></defs>
    <g id="Dev" stroke="none" stroke-width="1" fill="none" fill-rule="evenodd">
        <g id="VDF_Menu_1440Px" transform="translate(-978.000000, -89.000000)" fill="#000000">
            <g id="SOCIAL" transform="translate(938.000000, 0.000000)">
                <g id="Twitter" transform="translate(40.000000, 89.000000)">
                    <path d="M22,2.12925563 C21.1939692,2.48932487 20.3209124,2.73860358 19.4083275,2.84766301 C20.3415358,2.28505482 21.0530427,1.39353722 21.3950473,0.330640508 C20.5219905,0.85170225 19.5561284,1.23081362 18.5215218,1.43335257 C17.7034607,0.553952683 16.5279275,0 15.2320912,0 C12.741817,0 10.7207249,2.03577611 10.7207249,4.5441431 C10.7207249,4.90248125 10.7619717,5.24697057 10.8358722,5.57934218 C7.08241544,5.38892095 3.76033122,3.58338142 1.53128662,0.830929025 C1.14116085,1.50086555 0.919459417,2.28505482 0.919459417,3.11771495 C0.919459417,4.69301789 1.71861573,6.08655511 2.92680259,6.89671091 C2.18779783,6.87766878 1.4969143,6.66820542 0.886805718,6.32890941 L0.886805718,6.38430467 C0.886805718,8.58799769 2.44387157,10.4264282 4.50449184,10.847086 C4.12811499,10.9474899 3.72595891,11.0011541 3.31692836,11.0011541 C3.02820092,11.0011541 2.74634794,10.9751875 2.46449496,10.9215234 C3.04194985,12.7270629 4.70556988,14.0375072 6.68025935,14.0790537 C5.13522381,15.2960185 3.18803218,16.0196192 1.07413483,16.0196192 C0.711506914,16.0196192 0.355753457,15.9988459 0,15.9590306 C2.00046871,17.2504328 4.37043981,18 6.92086556,18 C15.2183423,18 19.7572065,11.0755915 19.7572065,5.07212926 L19.7434575,4.48355453 C20.6302633,3.84131564 21.3950473,3.04327755 22,2.12925563 Z" id="twitter1"></path>
                </g>
            </g>
        </g>
    </g>
</svg>