<?xml version="1.0" encoding="utf-8"?>
<!-- Generator: Adobe Illustrator 18.0.0, SVG Export Plug-In . SVG Version: 6.00 Build 0)  -->
<!DOCTYPE svg PUBLIC "-//W3C//DTD SVG 1.1//EN" "http://www.w3.org/Graphics/SVG/1.1/DTD/svg11.dtd">
<svg version="1.1" id="Layer_1" xmlns="http://www.w3.org/2000/svg" xmlns:xlink="http://www.w3.org/1999/xlink" x="0px" y="0px"
	 viewBox="0 0 64 64" enable-background="new 0 0 64 64" xml:space="preserve">
<g>
	<path d="M45.8,0H10C7.8,0,6,1.8,6,4v56c0,2.2,1.8,4,4,4h44c2.2,0,4-1.8,4-4V11.1L45.8,0z M47,6.5l3.8,3.5H47V6.5z M10,60V4h33v10
		h11l0,46H10z"/>
	<rect x="14" y="27" width="25" height="4"/>
	<rect x="14" y="19" width="36" height="4"/>
	<polygon points="27,42.2 23.9,42.2 22.1,45.4 20.3,42.2 17.2,42.2 20.6,47.9 17,53.8 20.1,53.8 22.1,50.2 24.1,53.8 27.2,53.8 
		23.6,47.9 	"/>
	<polygon points="31,42.2 28.2,42.2 28.2,53.8 36.6,53.8 36.6,51.7 31,51.7 	"/>
	<path d="M45.7,48c-0.8-0.5-1.7-1-2.7-1.3c-0.7-0.2-1.3-0.5-1.9-0.8c-0.3-0.1-0.5-0.3-0.6-0.4c-0.1-0.1-0.2-0.3-0.2-0.5
		c0-0.2,0.1-0.4,0.2-0.5c0.1-0.1,0.2-0.3,0.4-0.3c0.2-0.1,0.3-0.1,0.5-0.2c0.2,0,0.4-0.1,0.6-0.1c0.6,0,1,0.1,1.4,0.4
		c0.3,0.3,0.6,0.6,0.8,1.1l2.6-0.7c-0.3-0.5-0.5-1-0.9-1.3c-0.3-0.3-0.7-0.6-1.1-0.8C44,42.2,43.1,42,42.1,42
		c-1.2,0-2.3,0.3-3.1,0.9c-0.8,0.6-1.2,1.4-1.2,2.3c0,0.9,0.4,1.7,1.1,2.2c0.7,0.5,1.7,1,3.1,1.4c0.7,0.2,1.3,0.5,1.8,0.8
		c0.4,0.3,0.7,0.6,0.7,1c0,0.3-0.1,0.5-0.2,0.7c-0.1,0.2-0.3,0.3-0.4,0.4c-0.2,0.1-0.4,0.2-0.6,0.2c-0.2,0-0.5,0.1-0.7,0.1
		c-0.4,0-0.7,0-0.9-0.1s-0.5-0.2-0.7-0.4c-0.2-0.2-0.4-0.3-0.6-0.6s-0.3-0.5-0.5-0.7L37.3,51c0.3,0.6,0.6,1,0.9,1.4
		c0.4,0.4,0.8,0.7,1.3,0.9c0.9,0.4,1.8,0.7,2.8,0.7c1.5,0,2.6-0.3,3.5-0.9c0.8-0.6,1.2-1.5,1.2-2.7C47,49.4,46.6,48.6,45.7,48z"/>
</g>
</svg>
